<svg width="152" height="73" viewBox="0 0 152 73" fill="none" xmlns="http://www.w3.org/2000/svg">
<g id="empathizeIcon" clip-path="url(#clip0_203_968)">
<rect id="Rectangle 44" x="8.70711" y="34.7573" width="46.9301" height="46.9301" transform="rotate(-45 8.70711 34.7573)" stroke="black" stroke-opacity="0.5"/>
<rect id="Rectangle 45" x="75.7071" y="34.7573" width="46.9301" height="46.9301" transform="rotate(-45 75.7071 34.7573)" stroke="black" stroke-opacity="0.5"/>
<g id="Polygon 4" filter="url(#filter0_di_203_968)">
<path d="M14.7181 35.5762C14.3227 35.1849 14.3227 34.5461 14.7181 34.1547L38.5465 10.5707C39.178 9.94573 40.25 10.393 40.25 11.2814L40.25 58.4495C40.25 59.3379 39.178 59.7852 38.5466 59.1603L14.7181 35.5762Z" fill="#6AC3F8"/>
<path d="M15.0698 35.2208C14.8721 35.0252 14.8721 34.7058 15.0698 34.5101L38.8983 10.9261C39.214 10.6136 39.75 10.8372 39.75 11.2814L39.75 58.4495C39.75 58.8937 39.214 59.1174 38.8983 58.8049L15.0698 35.2208Z" stroke="#00578B"/>
</g>
<path id="Polygon 5" d="M70 34.8655L43.75 60.8462L43.75 8.88471L70 34.8655Z" fill="#EF9D51" fill-opacity="0.25"/>
<path id="Polygon 6" d="M109 6.86548L134.981 33.1155L83.0192 33.1155L109 6.86548Z" fill="#3D75CC" fill-opacity="0.25"/>
<path id="Polygon 7" fill-rule="evenodd" clip-rule="evenodd" d="M83.0193 36.6153L107.5 61.3499L107.5 36.6153L83.0193 36.6153Z" fill="#37B651" fill-opacity="0.25"/>
<path id="Polygon 8" fill-rule="evenodd" clip-rule="evenodd" d="M134.481 36.6109L110 36.6109L110 61.3455L134.481 36.6109Z" fill="#D03771" fill-opacity="0.25"/>
</g>
<defs>
<filter id="filter0_di_203_968" x="13.4216" y="6.27954" width="29.8284" height="57.1719" filterUnits="userSpaceOnUse" color-interpolation-filters="sRGB">
<feFlood flood-opacity="0" result="BackgroundImageFix"/>
<feColorMatrix in="SourceAlpha" type="matrix" values="0 0 0 0 0 0 0 0 0 0 0 0 0 0 0 0 0 0 127 0" result="hardAlpha"/>
<feOffset dx="1" dy="2"/>
<feGaussianBlur stdDeviation="1"/>
<feComposite in2="hardAlpha" operator="out"/>
<feColorMatrix type="matrix" values="0 0 0 0 0 0 0 0 0 0 0 0 0 0 0 0 0 0 0.4 0"/>
<feBlend mode="normal" in2="BackgroundImageFix" result="effect1_dropShadow_203_968"/>
<feBlend mode="normal" in="SourceGraphic" in2="effect1_dropShadow_203_968" result="shape"/>
<feColorMatrix in="SourceAlpha" type="matrix" values="0 0 0 0 0 0 0 0 0 0 0 0 0 0 0 0 0 0 127 0" result="hardAlpha"/>
<feOffset dy="-4"/>
<feGaussianBlur stdDeviation="2"/>
<feComposite in2="hardAlpha" operator="arithmetic" k2="-1" k3="1"/>
<feColorMatrix type="matrix" values="0 0 0 0 0 0 0 0 0 0 0 0 0 0 0 0 0 0 0.25 0"/>
<feBlend mode="normal" in2="shape" result="effect2_innerShadow_203_968"/>
</filter>
<clipPath id="clip0_203_968">
<rect width="152" height="71.2692" fill="white" transform="translate(0 0.865479)"/>
</clipPath>
</defs>
</svg>
